<svg width="721" height="722" viewBox="0 0 721 722" fill="none" xmlns="http://www.w3.org/2000/svg">
<g clip-path="url(#clip0)">
<rect x="0.750977" y="0.974976" width="720.093" height="720.093" rx="360.046" fill="#311B92"/>
<path d="M110.372 227.617C107.268 227.741 104.328 226.106 102.701 223.348C101.564 221.423 101.218 219.2 101.725 217.092C102.233 214.985 103.535 213.242 105.39 212.187C106.46 211.578 107.682 211.231 108.925 211.182C112.03 211.057 114.969 212.693 116.597 215.451C117.733 217.377 118.08 219.598 117.572 221.707C117.065 223.815 115.762 225.556 113.907 226.612C112.837 227.22 111.616 227.567 110.372 227.617Z" fill="#1DE9B6"/>
<path d="M286.236 199.705L156.072 275.961L128.348 230.225C126.133 226.568 128.614 222.108 132.73 222.351L171.977 224.67L174.744 167.404C174.906 164.048 178.087 161.887 181.299 162.954L242.597 183.296L250.222 156.643C251.456 152.331 257.219 151.834 259.641 155.83L286.236 199.705Z" fill="#1DE9B6"/>
<path d="M170.045 158.152C166.94 158.276 164 156.64 162.374 153.883C161.236 151.958 160.89 149.735 161.398 147.627C161.905 145.52 163.207 143.777 165.062 142.722C166.132 142.113 167.354 141.766 168.597 141.716C171.702 141.592 174.642 143.228 176.269 145.986C177.406 147.912 177.752 150.133 177.244 152.241C176.737 154.35 175.435 156.091 173.58 157.147C172.51 157.755 171.288 158.102 170.045 158.152Z" fill="#1DE9B6"/>
<path d="M256.548 143.222C253.443 143.347 250.504 141.711 248.877 138.953C247.74 137.028 247.393 134.806 247.901 132.697C248.409 130.59 249.711 128.848 251.566 127.793C252.636 127.184 253.857 126.836 255.1 126.787C258.205 126.662 261.145 128.298 262.772 131.056C263.91 132.982 264.256 135.203 263.748 137.312C263.241 139.42 261.939 141.161 260.084 142.217C259.013 142.826 257.792 143.173 256.548 143.222Z" fill="#1DE9B6"/>
<path d="M235.42 356.748C235.42 349.2 228.955 342.82 221.31 342.82C215.338 342.82 205.666 344.884 190.893 353.129C212.628 333.613 243.693 309.972 256.918 302.889C260.03 301.331 262.91 299.497 262.91 296.667C262.91 294.213 260.181 291.479 256.265 291.479C252.589 291.479 247.84 293.943 244.47 296.031C232.116 304.005 215.179 317.409 192.681 337.009C169.87 357.047 150.523 376.468 139.78 390.093C138.93 390.943 138.93 392.12 138.93 393.157C138.93 396.468 140.748 399.985 144.117 399.985C146.67 399.985 148.657 398.256 149.813 396.873C158.704 387.053 173.601 374.849 188.697 365.021C200.647 357.184 213.534 351.92 220.763 351.92C223.373 351.92 223.586 352.951 223.586 354.196C223.586 356.356 222.505 361.496 215.256 371.64C206.36 384.359 185.122 403.465 168.929 410.529C163.381 412.788 159.806 413.09 157.046 413.09C154.605 413.09 153.712 412.342 153.676 412.09C153.676 409.161 157.805 401.616 162.638 396.976L175.708 384.235L167.613 386.213C158.784 388.369 145.117 405.195 145.117 413.913C145.117 418.763 149.088 423.653 157.957 423.653C182.448 423.653 214.612 394.178 228.605 374.295C233.125 368.151 235.42 362.247 235.42 356.748Z" fill="#1DE9B6"/>
<path d="M295.19 384.786L298.133 382.576L292.389 379.696L291.238 380.704C290.848 381.047 251.928 414.914 229.014 414.914C225.312 414.914 222.186 412.539 222.186 409.724C222.186 396.436 241 378.091 257.11 366.422C269.048 357.798 277.052 353.414 282.392 351.298C275.996 358.566 263.49 371.52 249.184 379.712L241.76 383.963H250.313C262.392 383.963 283.961 364.422 292.706 355.987C294.822 353.871 297.013 351.68 297.013 347.826C297.013 345.3 296.146 343.567 295.373 342.384C294.63 340.638 293.266 338.632 289.274 338.632C287.304 338.632 284.29 339.259 280.104 340.535C270.692 343.199 253.696 352.062 238.604 365.243C220.448 381.412 211.993 395.024 211.993 408.086C211.993 417.344 220.03 425.471 229.197 425.471C245.952 425.471 264.468 411.667 280.384 398.158C282.584 396.263 284.656 394.276 286.696 392.324C289.576 389.564 292.297 386.955 295.19 384.786Z" fill="#1DE9B6"/>
<path d="M382.594 350.191C382.594 341.66 374.503 338.632 367.571 338.632C351.257 338.632 329.581 349.848 314.759 360.331C305.562 366.675 275.542 389.124 275.542 411.725C275.542 418.731 281.063 424.017 288.381 424.017C297.542 424.017 312.959 412.312 327.865 400.991C330.813 398.753 333.675 396.575 336.378 394.584C333.986 400.052 332.711 405.431 332.711 410.272C332.711 417.287 337.21 421.648 344.451 421.648H348.55V419.372C348.55 416.504 346.651 415.464 345.497 415.464H345.487C344.825 415.424 343.269 415.339 343.269 412.455C343.269 409.771 344.67 405.724 346.047 402.669C348.043 397.127 352.111 391.775 354.801 388.231C357.006 385.332 357.833 384.248 357.833 382.963C357.833 380.136 353.387 376.681 351.19 376.681C349.999 376.681 348.154 377.121 343.51 380.372C311.291 402.999 292.363 414.001 285.646 414.001C285.139 414.001 284.983 413.895 284.983 413.895C284.983 413.889 284.829 413.695 284.829 413.001C284.829 400.995 309.678 377.388 327.497 365.751C334.111 361.403 340.517 357.717 346.522 354.796C350.737 352.791 361.598 348.644 368.301 348.644C373.125 348.644 373.125 350.065 373.125 351.103C373.125 353.787 370.963 358.801 368.323 362.275C363.438 368.591 360.606 371.684 358.913 373.529C357.229 375.375 356.379 376.299 356.379 377.864C356.379 380.74 359.294 382.509 361.385 382.509H362.025L362.566 382.176C371.397 376.801 382.594 360.664 382.594 350.191Z" fill="#1DE9B6"/>
<path d="M366.654 422.19C376.034 421.688 395.763 406.337 409.869 394.308C407.49 398.508 405.953 402.701 405.953 406.996C405.953 413.588 409.731 418.189 415.146 418.189C416.163 418.189 417.43 418.189 419.137 417.46L427.423 413.908L418.445 413.1C416.511 412.926 416.511 412.926 416.511 410.272C416.511 397.894 446.379 367.282 456.978 357.748C457.335 357.514 460.027 355.678 460.857 353.001C461.094 355.908 463.455 357.93 466.865 357.93L475.502 357.192C452.55 380.13 440.921 397.976 440.921 410.272C440.921 417.385 445.113 424.564 454.483 424.564C471.599 424.564 489.333 405.838 499.926 394.654L501.002 393.516V392.609C501.002 391.814 500.838 391.164 500.637 390.428V385.465L496.877 388.702C488.701 395.738 465.011 414.001 453.754 414.001C452.251 414.001 450.025 413.392 450.025 412.09C450.025 411.934 450.522 395.936 493.334 355.485C504.011 354.605 514.938 353.733 515.374 353.654L523.893 351.181L532.997 350.272L537.41 348.368V346.914C537.41 344.273 534.713 344.273 531.858 344.273C526.759 344.273 516.735 344.78 504.998 345.384C507.43 343.488 510.083 341.557 512.683 339.66C521.638 333.142 525.941 329.866 525.941 326.705C525.941 323.757 523.855 320.606 520.753 320.606C518.317 320.606 516.258 321.93 515.939 322.149C506.003 329.509 496.022 337.72 486.265 346.562L463.509 349.234C462.558 349.424 461.571 350.09 461.085 351.153C460.925 349.004 459.114 346.097 455.378 346.097C452.754 346.097 448.429 349.554 436.773 359.944L433.487 362.869C407.526 385.716 372.758 411.273 365.079 411.273C364.422 411.273 364.174 411.152 364.151 411.152H364.146C364.129 411.112 364.079 410.946 364.079 410.636C364.079 405.986 371.499 395.454 373.335 393.396C384.383 380.966 396.927 368.954 414.585 352.63C414.967 352.378 418.333 350.04 418.333 346.55C418.333 344.602 416.213 341.908 412.234 341.908C410.526 341.908 408.202 343.286 406.77 344.261C406.326 344.576 404.041 345.714 401.831 346.817C400.001 347.728 397.835 348.804 395.559 349.977C391.029 352.24 384.494 355.449 379.902 357.26C379.657 357.384 379.293 357.477 378.914 357.597C377.386 358.068 374.821 358.86 374.821 361.296C374.821 361.85 374.821 363.149 375.851 364.18C376.701 365.029 377.817 365.029 378.185 365.029C379.687 365.029 381.787 364.349 385.507 362.806C372.829 375.009 362.923 387.168 357.581 397.237C355.753 400.896 354.065 404.785 354.065 408.449C354.065 411.05 355.061 413.854 356.733 416.136C358.902 419.928 362.561 422.19 366.645 422.19H366.654Z" fill="#1DE9B6"/>
<path d="M520.94 428.849C504.478 448.815 488.98 466.921 470.599 484.164L470.594 484.169C446.335 507.045 420.28 525.811 399.092 535.653C393.038 538.497 377.342 543.811 368.93 543.811C366.88 543.811 360.643 543.811 360.643 534.617C360.643 502.463 424.023 464.52 431.27 460.284C431.647 460.061 467.975 438.549 520.94 428.849ZM596.642 345.856C595.544 344.483 594.007 343.727 592.312 343.727C591.326 343.727 590.476 344.073 590.036 344.544C545.852 377.605 510.759 401.972 499.882 407.28C504.718 394.019 533.743 368.688 546.247 359.473C546.782 359.179 551.44 356.525 551.44 352.56C551.44 348.448 545.474 347.568 543.468 347.568H543.403C539.94 348.031 537.624 349.96 534.427 352.623C521.588 363.224 488.266 393.921 488.266 408.449C488.266 414.397 492.422 418.553 498.37 418.553C506.874 418.553 522.695 406.187 554.21 381.544C557.379 379.068 560.695 376.477 564.163 373.773L528.696 418.1C498.798 420.843 462.108 432.371 430.308 449.041C393.051 468.815 349.538 503.472 349.538 536.071C349.538 547.7 357.336 554.369 370.93 554.369C387.744 554.369 412.466 544.005 437.044 526.655C449.931 517.719 463.619 506.436 477.72 493.123C498.926 473.104 519.354 449.708 535.339 427.147C546.136 425.76 557.068 424.916 568.715 424.564L576.468 424.328L569.814 420.336C569.57 420.189 563.652 416.736 549.347 416.736C547.982 416.736 546.363 416.833 544.386 416.957C544.034 416.98 543.67 417.001 543.296 417.024C568.928 386.119 582.342 370.24 589.686 361.544C592.646 358.037 594.523 355.815 595.563 354.535C595.815 354.28 598.047 351.983 598.047 349.644C598.047 348.433 597.554 347.079 596.642 345.856Z" fill="#1DE9B6"/>
<path fill-rule="evenodd" clip-rule="evenodd" d="M155.149 291.137C155.149 288.995 155.2 286.882 155.301 284.797L216.881 248.721C214.321 252.439 212.25 256.758 210.848 261.707L209.406 266.797H295.486L294.052 261.711C287.989 240.207 269.071 230.601 252.236 230.601C250.619 230.601 248.983 230.692 247.341 230.876L294.552 203.217C305.138 208.159 314.192 215.169 321.705 224.185L321.71 224.191C341.104 247.376 343.465 275.546 343.465 295.317V299.584H270.561C270.786 298.683 270.915 297.711 270.915 296.667C270.915 288.586 263.289 283.479 256.27 283.479C252.852 283.479 249.582 284.568 247.134 285.606C244.555 286.7 242.144 288.064 240.261 289.23L240.199 289.269L240.137 289.309C235.797 292.11 230.953 295.528 225.572 299.584H207.858L208.155 303.86C208.355 306.754 208.755 309.621 209.344 312.397C202.669 317.869 195.377 324.055 187.431 330.977L187.419 330.988L187.406 330.999C181.494 336.192 175.794 341.361 170.396 346.416C160.189 331.22 155.149 313.024 155.149 291.137ZM339.272 337.414C340.395 335.136 341.367 332.945 342.203 330.885L342.244 330.785L295.254 323.235L295.224 323.286C293.701 325.952 291.986 328.409 290.098 330.65C293.189 330.782 296.05 331.68 298.434 333.519C300.575 335.171 301.764 337.155 302.446 338.598C303.679 340.635 305.018 343.689 305.018 347.826C305.018 355.038 300.712 359.316 298.618 361.395L298.564 361.449C298.496 361.516 298.431 361.581 298.368 361.644L298.317 361.695L298.265 361.745C297.787 362.206 297.287 362.718 296.755 363.263L296.754 363.264C295.94 364.098 295.05 365.009 294.053 365.928L294.098 365.892C299.678 360.94 305.24 357.147 308.776 354.735L308.778 354.734C309.291 354.384 309.762 354.063 310.184 353.772C317.948 348.283 327.519 342.589 337.377 338.233C338.005 337.955 338.636 337.682 339.272 337.414ZM249.476 346.962C246.132 346.754 243.067 346.262 240.265 345.557C241.401 347.421 242.266 349.463 242.801 351.626C245.027 349.982 247.26 348.426 249.476 346.962Z" fill="#1DE9B6"/>
<path fill-rule="evenodd" clip-rule="evenodd" d="M439.705 426.977C437.9 430.324 436.44 433.872 435.359 437.547C439.565 435.516 443.835 433.572 448.148 431.723C444.878 430.809 442.031 429.179 439.705 426.977ZM450.787 491.194C449.468 490.057 448.194 488.857 446.974 487.591C441.251 481.581 437.296 474.808 435.124 467.301C435.191 467.262 435.254 467.225 435.312 467.191L435.327 467.182L435.341 467.174C435.341 467.174 435.888 466.849 436.945 466.263C438.007 465.674 439.587 464.818 441.65 463.76C445.776 461.643 451.822 458.718 459.489 455.496C466.205 452.674 474.147 449.631 483.117 446.705C482.818 447.815 482.655 449.016 482.655 450.312C482.655 453.287 483.584 455.847 485.206 458.045C478.779 464.994 472.166 471.73 465.131 478.329L465.111 478.349L465.042 478.413L465.03 478.425C460.322 482.862 455.558 487.13 450.787 491.194ZM475.977 505.633C479.29 506.969 482.613 508.188 485.877 509.346L485.884 509.348L497.559 513.515L497.589 513.526C502.497 515.367 506.48 517.607 509.241 520.646C512.125 523.822 513.418 527.584 513.418 531.841C513.418 539.177 509.685 544.275 504.63 547.348C499.769 550.303 493.727 551.404 488.422 551.404C474.417 551.404 459.196 543.181 448.35 530.531L448.349 530.53L448.283 530.453L421.409 561.529L421.46 561.585L421.461 561.585C440.093 581.589 463.66 591.717 491.766 591.717C514.75 591.717 531.881 585.532 546.176 572.462C559.531 560.252 566.274 544.842 566.274 526.408C566.274 515.29 562.86 504.291 557.049 496.239C551.877 489.212 543.948 483.825 535.345 479.605C526.787 475.408 517.911 472.527 511.03 470.301C502.125 480.275 492.748 489.943 483.218 498.94C480.794 501.228 478.38 503.46 475.977 505.633ZM530.67 446.811C531.064 447.157 531.455 447.51 531.843 447.871L531.909 447.933L543.47 434.252C542.245 434.38 541.024 434.516 539.806 434.659C536.887 438.699 533.835 442.757 530.67 446.811Z" fill="#1DE9B6"/>
<path fill-rule="evenodd" clip-rule="evenodd" d="M451.95 411.821C440.209 421.702 433.145 437.037 433.145 452.821C433.145 462.113 435.345 470.525 439.724 478.019L483.352 454.557C482.898 453.246 482.655 451.833 482.655 450.312C482.655 444.722 485.685 440.877 489.65 438.64C493.415 436.516 498.066 435.768 502.219 435.768C513.3 435.768 523.305 439.918 531.843 447.871L531.909 447.933L557.113 418.107L557.042 418.053L557.041 418.052C534.44 400.79 513.355 398.802 499.291 398.802C485.527 398.802 466.51 400.279 451.95 411.821Z" fill="#1DE9B6"/>
<path fill-rule="evenodd" clip-rule="evenodd" d="M409.222 484.566V521.275C404.532 524.019 400.012 526.408 395.727 528.398L395.712 528.405L395.696 528.413C393.144 529.612 388.114 531.517 382.645 533.123C377.011 534.778 371.919 535.811 368.935 535.811C368.888 535.811 368.844 535.811 368.802 535.811L368.72 535.81C368.68 535.522 368.648 535.131 368.648 534.617C368.648 529.098 371.445 522.392 377.085 514.806C382.621 507.359 390.252 499.925 398.382 493.113C402.001 490.081 405.669 487.213 409.222 484.566ZM409.222 425.117V451.997C395.456 460.622 381.76 470.868 370.36 482.03C367.758 484.578 365.236 487.212 362.839 489.921C360.529 463.239 340.236 444.13 312.974 444.13C283.995 444.13 262.89 465.722 262.89 495.05C262.89 524.147 284.391 546.389 312.974 546.389C323.783 546.389 333.579 543.208 341.582 537.679C341.931 544.748 344.607 551.098 349.941 555.661C355.497 560.412 362.935 562.37 370.935 562.37C381.928 562.37 395.211 558.638 409.222 552.173V585.863H358.041V563.803L351.13 571.138C338.406 584.642 321.867 591.717 302.522 591.717C276.054 591.717 252.263 581.586 235.404 563.31C219.104 545.639 210.034 521.428 210.034 495.05C210.034 471.79 216.929 450.275 229.472 433.47C239.838 433.398 250.029 429.166 259.175 423.771C262.3 421.927 265.393 419.893 268.427 417.746C271.02 426.281 279.042 432.017 288.386 432.017C292.235 432.017 296.071 430.827 299.481 429.362C302.985 427.857 306.632 425.799 310.251 423.51C314.962 420.53 319.955 416.942 324.908 413.25C325.453 417.413 327.18 421.308 330.304 424.335C334.134 428.048 339.231 429.648 344.456 429.648H356.555V427.256C359.486 429.117 362.925 430.191 366.65 430.191H366.873L367.087 430.179C371.124 429.963 375.323 428.292 378.968 426.466C382.809 424.542 386.928 421.979 391.024 419.166C393.61 417.39 396.246 415.472 398.867 413.489C399.58 415.906 400.724 418.173 402.342 420.142C404.184 422.385 406.535 424.097 409.222 425.117Z" fill="#1DE9B6"/>
<path fill-rule="evenodd" clip-rule="evenodd" d="M433.514 352.141C438.262 347.932 441.866 344.839 444.649 342.739C446.238 341.54 447.818 340.464 449.382 339.669C450.927 338.883 452.979 338.097 455.383 338.097C459.034 338.097 461.934 339.31 464.109 341.11L482.808 338.914C483.436 338.352 484.065 337.792 484.695 337.234V200.325H433.514V352.141Z" fill="#1DE9B6"/>
<path fill-rule="evenodd" clip-rule="evenodd" d="M398.048 381.532H395.721C400.141 377.164 404.943 372.574 410.278 367.57V371.944C406.179 375.248 402.064 378.475 398.048 381.532ZM410.278 334.075V200.325H359.096V331.373C361.968 330.896 364.809 330.632 367.576 330.632C372.012 330.632 377.398 331.57 381.957 334.447C385.378 336.606 388.2 339.812 389.615 344C390.424 343.601 391.205 343.212 391.945 342.843C394.194 341.684 396.332 340.62 398.111 339.735L398.116 339.733L398.38 339.601L398.389 339.597C399.463 339.061 400.497 338.545 401.325 338.121C401.757 337.9 402.09 337.726 402.322 337.601L402.359 337.581L402.43 337.542C403.314 336.948 404.555 336.171 405.946 335.505C406.897 335.049 408.438 334.383 410.278 334.075Z" fill="#1DE9B6"/>
</g>
<defs>
<clipPath id="clip0">
<rect width="720.093" height="720.093" fill="white" transform="translate(0.750977 0.974976)"/>
</clipPath>
</defs>
</svg>
